<svg xmlns="http://www.w3.org/2000/svg" id="proporcje" viewBox="3.61 28.83 305.61 165.04">
  <defs>
    <style>
      .cls-1 {
        fill: #fff;
      }

      .cls-1, .cls-2 {
        stroke-width: 0px;
      }

      .cls-2 {
        fill: #1d1d1b;
      }
    </style>
  </defs>
  <g transform="matrix(1.349374, 0, 0, 1.349374, -72.913971, -48.337963)" style="">
    <g>
      <path class="cls-2" d="m64.08,138.55c.5-.51,1.11-.9,1.82-1.17.71-.27,1.5-.4,2.37-.4.98,0,1.87.19,2.67.56.8.38,1.55.94,2.24,1.69l3.64-3.29c-.98-1.19-2.22-2.11-3.73-2.74-1.5-.64-3.21-.95-5.11-.95-1.64,0-3.14.26-4.52.77-1.38.51-2.57,1.24-3.57,2.18-1,.94-1.78,2.06-2.34,3.34-.56,1.28-.84,2.69-.84,4.23s.28,2.95.84,4.23c.56,1.28,1.33,2.39,2.33,3.34.99.94,2.17,1.67,3.54,2.18,1.37.51,2.85.77,4.45.77,1.46,0,2.96-.22,4.48-.66,1.52-.44,2.86-1.08,4.01-1.91v-8.38h-5.05v5.55c-.2.09-.41.18-.61.25-.81.28-1.64.42-2.48.42s-1.62-.14-2.33-.42c-.7-.28-1.3-.67-1.81-1.18-.5-.51-.89-1.12-1.17-1.83-.28-.71-.42-1.49-.42-2.34s.14-1.68.42-2.38c.28-.7.67-1.31,1.17-1.82Z" style="fill: rgb(255, 255, 255);"/>
      <path class="cls-2" d="m86.29,147.49h3.12l3.67,5.37h6.12l-4.37-6.37c1.22-.58,2.18-1.39,2.87-2.43.73-1.11,1.1-2.42,1.1-3.94s-.37-2.87-1.1-4c-.73-1.13-1.77-1.99-3.1-2.58-1.34-.6-2.93-.9-4.78-.9h-9.24v20.22h5.72v-5.37Zm5.85-9.56c.59.52.88,1.25.88,2.19s-.29,1.65-.88,2.17c-.59.52-1.48.78-2.67.78h-3.18v-5.92h3.18c1.19,0,2.08.26,2.67.78Z" style="fill: rgb(255, 255, 255);"/>
      <polygon class="cls-2" points="118.75 148.45 108.18 148.45 108.18 144.75 117.17 144.75 117.17 140.47 108.18 140.47 108.18 137.07 118.38 137.07 118.38 132.65 102.52 132.65 102.52 152.87 118.75 152.87 118.75 148.45" style="fill: rgb(255, 255, 255);"/>
      <polygon class="cls-2" points="138.74 148.45 128.17 148.45 128.17 144.75 137.15 144.75 137.15 140.47 128.17 140.47 128.17 137.07 138.37 137.07 138.37 132.65 122.51 132.65 122.51 152.87 138.74 152.87 138.74 148.45" style="fill: rgb(255, 255, 255);"/>
      <polygon class="cls-2" points="148.1 142.09 157.03 152.87 161.73 152.87 161.73 132.65 156.13 132.65 156.13 143.42 147.21 132.65 142.5 132.65 142.5 152.87 148.1 152.87 148.1 142.09" style="fill: rgb(255, 255, 255);"/>
      <polygon class="cls-2" points="98.56 166.46 90.76 166.46 90.76 158.87 85.04 158.87 85.04 179.09 90.76 179.09 90.76 171.2 98.56 171.2 98.56 179.09 104.28 179.09 104.28 158.87 98.56 158.87 98.56 166.46" style="fill: rgb(255, 255, 255);"/>
      <path class="cls-2" d="m127.12,161.45c-1-.95-2.18-1.69-3.54-2.21-1.36-.52-2.85-.78-4.49-.78s-3.11.26-4.48.78c-1.37.52-2.56,1.26-3.57,2.21-1.01.95-1.8,2.06-2.35,3.34-.56,1.27-.84,2.67-.84,4.19s.28,2.92.84,4.19c.56,1.27,1.34,2.38,2.35,3.34,1.01.95,2.2,1.69,3.57,2.21,1.37.52,2.86.78,4.48.78s3.13-.26,4.49-.78c1.36-.52,2.54-1.25,3.54-2.2,1-.94,1.79-2.06,2.35-3.34.57-1.28.85-2.68.85-4.2s-.28-2.92-.85-4.19c-.57-1.27-1.35-2.38-2.35-3.34Zm-2.99,9.89c-.28.71-.66,1.32-1.16,1.83-.49.51-1.07.9-1.73,1.17-.66.27-1.38.4-2.15.4s-1.49-.13-2.15-.4-1.24-.66-1.73-1.17c-.49-.51-.88-1.12-1.16-1.83-.28-.71-.42-1.5-.42-2.37s.14-1.68.42-2.38c.28-.7.66-1.31,1.16-1.82.49-.51,1.07-.9,1.73-1.17s1.38-.4,2.15-.4,1.49.13,2.15.4c.66.27,1.24.66,1.73,1.17.49.51.88,1.12,1.16,1.82.28.7.42,1.5.42,2.38s-.14,1.66-.42,2.37Z" style="fill: rgb(255, 255, 255);"/>
      <path class="cls-2" d="m147.11,169.9c0,1.73-.34,2.98-1.01,3.73-.67.75-1.61,1.13-2.8,1.13s-2.13-.38-2.82-1.13c-.68-.75-1.03-1.99-1.03-3.73v-11.03h-5.72v11.21c0,3,.84,5.32,2.51,6.96s4,2.46,6.99,2.46,5.31-.82,6.99-2.46,2.51-3.96,2.51-6.96v-11.21h-5.63v11.03Z" style="fill: rgb(255, 255, 255);"/>
      <path class="cls-2" d="m171,168.62c-.67-.43-1.42-.78-2.24-1.04-.82-.26-1.64-.48-2.46-.65-.82-.17-1.57-.34-2.25-.51-.68-.16-1.23-.38-1.65-.64-.41-.26-.62-.61-.62-1.05,0-.35.11-.65.32-.92.21-.27.56-.49,1.04-.65.48-.16,1.12-.25,1.91-.25.89,0,1.8.13,2.74.39.94.26,1.9.65,2.86,1.17l1.76-4.25c-1-.58-2.14-1.02-3.42-1.31-1.28-.3-2.59-.45-3.91-.45-1.98,0-3.64.3-4.97.9-1.33.6-2.33,1.39-2.99,2.37-.66.98-1,2.08-1,3.29,0,1.08.21,1.97.64,2.67.42.7.97,1.27,1.65,1.7.67.43,1.42.79,2.24,1.05.82.27,1.64.49,2.46.66.82.17,1.56.35,2.24.52.67.17,1.22.4,1.65.66.42.27.64.64.64,1.1,0,.33-.11.61-.33.85-.22.24-.57.43-1.05.58-.48.14-1.12.22-1.91.22-1.17,0-2.35-.19-3.54-.56-1.18-.38-2.23-.85-3.13-1.43l-1.88,4.22c.96.65,2.21,1.19,3.74,1.6,1.53.41,3.12.62,4.78.62,2,0,3.66-.3,4.98-.9,1.32-.6,2.31-1.39,2.98-2.38.66-.99,1-2.07,1-3.25,0-1.06-.21-1.94-.62-2.64-.41-.7-.96-1.27-1.63-1.7Z" style="fill: rgb(255, 255, 255);"/>
      <polygon class="cls-2" points="182.18 174.67 182.18 170.97 191.17 170.97 191.17 166.7 182.18 166.7 182.18 163.29 192.38 163.29 192.38 158.87 176.52 158.87 176.52 179.09 192.76 179.09 192.76 174.67 182.18 174.67" style="fill: rgb(255, 255, 255);"/>
    </g>
    <path class="cls-2" d="m266.95,79.75c-7.54,0-13.87,5.13-15.71,12.09l-45.9-1.66v23.29h12.59v-10.98h34.13c2.51,5.73,8.23,9.74,14.89,9.74,8.97,0,16.24-7.27,16.24-16.24s-7.27-16.24-16.24-16.24Zm3.02,22.08c-3.22,0-5.84-2.61-5.84-5.84s2.61-5.84,5.84-5.84,5.84,2.61,5.84,5.84-2.61,5.84-5.84,5.84Z" style="fill: rgb(255, 255, 255);"/>
    <path class="cls-2" d="m235.85,135.63c.17,2.2.35,4.4.52,6.59h18.48l-2.05-32.57c-9.58-.6-19.16-1.21-28.74-1.81v15.21c-8.25-1.12-16.5-2.23-24.76-3.35v-35.77c16.87-1.04,33.75-2.08,50.62-3.11-1.56-3.41-4.56-8.75-10.04-13.56-12.4-10.88-27.41-10.18-30.29-9.99-18.8,1.25-29.48,14.64-30.93,16.52-1.32,1.71-12.06,16.14-7.89,34.87,3.96,17.83,19.61,31.02,36.78,33.23,13.76,1.77,24.48-3.97,28.31-6.27Z" style="fill: rgb(255, 255, 255);"/>
  </g>
</svg>