<svg width="113" height="32" viewBox="0 0 113 32" fill="none" xmlns="http://www.w3.org/2000/svg">
<path d="M35.9906 8.12183C33.1928 8.12183 30.8441 10.1194 30.1613 12.8296L13.1299 12.1832V21.2521H17.8015V16.9766H30.4656C31.3969 19.2078 33.5194 20.7693 35.9906 20.7693C39.319 20.7693 42.0165 17.9384 42.0165 14.4456C42.0165 10.9527 39.319 8.12183 35.9906 8.12183ZM37.1112 16.7196C35.9164 16.7196 34.9442 15.7033 34.9442 14.4456C34.9442 13.1878 35.9127 12.1715 37.1112 12.1715C38.3097 12.1715 39.2781 13.1878 39.2781 14.4456C39.2781 15.7033 38.3097 16.7196 37.1112 16.7196Z" fill="#1D1D1B"/>
<path d="M24.4717 29.3129C24.5347 30.1282 24.6014 30.9434 24.6644 31.755H31.5127L30.753 19.6851C27.2029 19.4628 23.6527 19.2367 20.1025 19.0144V24.6509C17.0453 24.2359 13.988 23.8245 10.927 23.4095V10.1537C17.1787 9.76831 23.4341 9.38291 29.6857 9.00121C29.1076 7.73752 27.9959 5.7586 25.9651 3.9761C21.3699 -0.0558477 15.8075 0.20356 14.7403 0.273971C7.77335 0.7372 3.81556 5.69931 3.27822 6.39601C2.78906 7.0297 -1.19097 12.3772 0.354348 19.3182C1.82184 25.9257 7.62142 30.8137 13.9843 31.6327C19.0835 32.2887 23.0561 30.1615 24.4754 29.3092L24.4717 29.3129Z" fill="#76B837"/>
<path d="M52.0338 5.59316C52.3571 5.30228 52.7514 5.07985 53.2104 4.92586C53.6693 4.77187 54.18 4.69772 54.7424 4.69772C55.3759 4.69772 55.9513 4.80608 56.4684 5.01711C56.9856 5.23384 57.4704 5.55323 57.9165 5.98099L60.2695 4.10456C59.636 3.42586 58.8344 2.90114 57.8583 2.54182C56.8886 2.1768 55.7832 2 54.555 2C53.4948 2 52.5251 2.14829 51.633 2.43917C50.7409 2.73004 49.9717 3.14639 49.3252 3.68251C48.6788 4.21863 48.1746 4.85741 47.8125 5.58745C47.4505 6.31749 47.2695 7.12168 47.2695 8C47.2695 8.87833 47.4505 9.68251 47.8125 10.4125C48.1746 11.1426 48.6723 11.7757 49.3188 12.3175C49.9587 12.8536 50.7215 13.27 51.6072 13.5608C52.4928 13.8517 53.4495 14 54.4839 14C55.4277 14 56.3973 13.8745 57.3799 13.6236C58.3625 13.3726 59.2288 13.0076 59.9722 12.5342V7.75475H56.7076V10.9202C56.5783 10.9715 56.4426 11.0228 56.3133 11.0627C55.7897 11.2224 55.2531 11.3023 54.7101 11.3023C54.1671 11.3023 53.6629 11.2224 53.2039 11.0627C52.7514 10.903 52.3635 10.6806 52.0338 10.3897C51.7106 10.0989 51.4585 9.75096 51.2775 9.34601C51.0965 8.94107 51.006 8.4962 51.006 8.0114C51.006 7.52661 51.0965 7.05324 51.2775 6.654C51.4585 6.25476 51.7106 5.90684 52.0338 5.61597V5.59316Z" fill="#1D1D1B"/>
<path d="M65.6428 10.8131H67.486L69.6541 14H73.2695L70.6879 10.2196C71.4086 9.87537 71.9758 9.39466 72.3834 8.77745C72.8146 8.11869 73.0332 7.34124 73.0332 6.43917C73.0332 5.53709 72.8146 4.7359 72.3834 4.06528C71.9521 3.39466 71.3377 2.88427 70.552 2.53412C69.7604 2.17804 68.8211 2 67.7282 2H62.2695V14H65.6487V10.8131H65.6428ZM69.0987 5.13946C69.4473 5.44807 69.6186 5.8813 69.6186 6.43917C69.6186 6.99703 69.4473 7.41839 69.0987 7.727C68.7502 8.0356 68.2244 8.18992 67.5214 8.18992H65.6428V4.67655H67.5214C68.2244 4.67655 68.7502 4.83086 69.0987 5.13946Z" fill="#1D1D1B"/>
<path d="M85.2695 11.3769H78.7569V9.18694H84.296V6.64688H78.7569V4.62314H85.0416V2H75.2695V14H85.2695V11.3769Z" fill="#1D1D1B"/>
<path d="M97.2695 11.3769H91.4082V9.18694H96.3878V6.64688H91.4082V4.62314H97.0644V2H88.2695V14H97.2695V11.3769Z" fill="#1D1D1B"/>
<path d="M102.764 7.60831L108.337 14H111.27V2H107.775V8.39762L102.209 2H99.2695V14H102.764V7.60831Z" fill="#1D1D1B"/>
<path d="M55.702 21.8863H50.8371V17H47.2695V30H50.8371V24.9337H55.702V30H59.2695V17H55.702V21.8863Z" fill="#1D1D1B"/>
<path d="M73.2758 18.8474C72.6527 18.2605 71.9175 17.8032 71.0702 17.4819C70.2228 17.1606 69.2944 17 68.2726 17C67.2508 17 66.335 17.1606 65.4814 17.4819C64.6278 17.8032 63.8864 18.2605 63.2571 18.8474C62.6278 19.4344 62.1356 20.1202 61.7929 20.9111C61.444 21.6958 61.2695 22.5608 61.2695 23.5C61.2695 24.4392 61.444 25.3042 61.7929 26.0889C62.1418 26.8736 62.6278 27.5594 63.2571 28.1526C63.8864 28.7395 64.6278 29.1968 65.4814 29.5181C66.335 29.8394 67.2633 30 68.2726 30C69.282 30 70.2228 29.8394 71.0702 29.5181C71.9175 29.1968 72.6527 28.7457 73.2758 28.1587C73.8988 27.5779 74.391 26.8859 74.7399 26.0951C75.0951 25.3042 75.2695 24.4392 75.2695 23.5C75.2695 22.5608 75.0951 21.6958 74.7399 20.9111C74.3848 20.1264 73.8988 19.4406 73.2758 18.8474ZM71.4128 24.9582C71.2384 25.3969 71.0016 25.7738 70.6901 26.0889C70.3848 26.404 70.0234 26.645 69.6122 26.8118C69.201 26.9786 68.7524 27.0589 68.2726 27.0589C67.7929 27.0589 67.3443 26.9786 66.9331 26.8118C66.5219 26.645 66.1605 26.404 65.8552 26.0889C65.5499 25.7738 65.3069 25.3969 65.1325 24.9582C64.958 24.5195 64.8708 24.0314 64.8708 23.4938C64.8708 22.9563 64.958 22.4558 65.1325 22.0233C65.3069 21.5908 65.5437 21.2139 65.8552 20.8988C66.1605 20.5836 66.5219 20.3427 66.9331 20.1759C67.3443 20.009 67.7929 19.9287 68.2726 19.9287C68.7524 19.9287 69.201 20.009 69.6122 20.1759C70.0234 20.3427 70.3848 20.5836 70.6901 20.8988C70.9954 21.2139 71.2384 21.5908 71.4128 22.0233C71.5873 22.4558 71.6745 22.9501 71.6745 23.4938C71.6745 24.0375 71.5873 24.5195 71.4128 24.9582Z" fill="#1D1D1B"/>
<path d="M84.7201 23.9506C84.7201 25.0407 84.5053 25.8284 84.0822 26.301C83.659 26.7736 83.0653 27.0131 82.3137 27.0131C81.5622 27.0131 80.9685 26.7736 80.5327 26.301C80.1032 25.8284 79.8822 25.047 79.8822 23.9506V17H76.2695V24.064C76.2695 25.9544 76.8001 27.4164 77.8548 28.4498C78.9095 29.4833 80.3811 30 82.2695 30C84.158 30 85.6232 29.4833 86.6843 28.4498C87.7453 27.4164 88.2695 25.9544 88.2695 24.064V17H84.7137V23.9506H84.7201Z" fill="#1D1D1B"/>
<path d="M98.9652 23.2835C98.5819 23.0176 98.1528 22.8011 97.6837 22.6403C97.2146 22.4795 96.7455 22.3435 96.2764 22.2383C95.8073 22.1332 95.3782 22.0281 94.9892 21.9229C94.6002 21.824 94.2855 21.6879 94.0453 21.5271C93.8107 21.3663 93.6906 21.1499 93.6906 20.8777C93.6906 20.6613 93.7535 20.4757 93.8737 20.3088C93.9938 20.1418 94.194 20.0057 94.4686 19.9068C94.7432 19.8078 95.1093 19.7521 95.5613 19.7521C96.0704 19.7521 96.591 19.8325 97.1288 19.9933C97.6666 20.1541 98.2158 20.3953 98.765 20.7169L99.7718 18.0885C99.1997 17.7298 98.5476 17.4577 97.8153 17.2783C97.083 17.0928 96.3336 17 95.5785 17C94.4457 17 93.4961 17.1855 92.7352 17.5566C91.9743 17.9277 91.4023 18.4163 91.0247 19.0224C90.6471 19.6285 90.4526 20.3088 90.4526 21.0571C90.4526 21.725 90.5727 22.2754 90.8187 22.7084C91.059 23.1413 91.3737 23.4938 91.7627 23.7598C92.146 24.0257 92.575 24.2483 93.0441 24.4091C93.5132 24.5761 93.9823 24.7122 94.4515 24.8173C94.9206 24.9225 95.3439 25.0338 95.7329 25.1389C96.1162 25.2441 96.4309 25.3863 96.6769 25.5471C96.9171 25.7141 97.043 25.9429 97.043 26.2274C97.043 26.4315 96.9801 26.6047 96.8542 26.7531C96.7283 26.9015 96.5281 27.019 96.2535 27.1118C95.9789 27.1984 95.6128 27.2479 95.1608 27.2479C94.4915 27.2479 93.8164 27.1304 93.1357 26.9015C92.4606 26.6665 91.8599 26.3758 91.345 26.0171L90.2695 28.627C90.8187 29.029 91.5338 29.363 92.4091 29.6166C93.2844 29.8701 94.194 30 95.1437 30C96.2878 30 97.2375 29.8145 97.9926 29.4434C98.7478 29.0723 99.3142 28.5837 99.6974 27.9715C100.075 27.3592 100.27 26.6912 100.27 25.9615C100.27 25.3059 100.149 24.7617 99.9148 24.3287C99.6803 23.8958 99.3656 23.5433 98.9823 23.2774L98.9652 23.2835Z" fill="#1D1D1B"/>
<path d="M106.406 27.1583V24.7859H111.388V22.0341H106.406V19.8417H112.059V17H103.27V30H112.27V27.1583H106.406Z" fill="#1D1D1B"/>
</svg>
