<svg version="1.1" xmlns="http://www.w3.org/2000/svg" xmlns:xlink="http://www.w3.org/1999/xlink" width="226.48" height="122.31181" viewBox="-522.145,-129.1559,226.48,122.31181"><g fill="none" fill-rule="nonzero" stroke="none" stroke-width="0" stroke-linecap="butt" stroke-linejoin="miter" stroke-miterlimit="10" stroke-dasharray="" stroke-dashoffset="0" font-family="none" font-weight="none" font-size="none" text-anchor="none" style="mix-blend-mode: normal"><g id="Group 1"><g id="Group 1" fill="#1d1d1b"><path d="M-514.775,-47.79409c0.5,-0.51 1.11,-0.9 1.82,-1.17c0.71,-0.27 1.5,-0.4 2.37,-0.4c0.98,0 1.87,0.19 2.67,0.56c0.8,0.38 1.55,0.94 2.24,1.69l3.64,-3.29c-0.98,-1.19 -2.22,-2.11 -3.73,-2.74c-1.5,-0.64 -3.21,-0.95 -5.11,-0.95c-1.64,0 -3.14,0.26 -4.52,0.77c-1.38,0.51 -2.57,1.24 -3.57,2.18c-1,0.94 -1.78,2.06 -2.34,3.34c-0.56,1.28 -0.84,2.69 -0.84,4.23c0,1.54 0.28,2.95 0.84,4.23c0.56,1.28 1.33,2.39 2.33,3.34c0.99,0.94 2.17,1.67 3.54,2.18c1.37,0.51 2.85,0.77 4.45,0.77c1.46,0 2.96,-0.22 4.48,-0.66c1.52,-0.44 2.86,-1.08 4.01,-1.91v-8.38h-5.05v5.55c-0.2,0.09 -0.41,0.18 -0.61,0.25c-0.81,0.28 -1.64,0.42 -2.48,0.42c-0.84,0 -1.62,-0.14 -2.33,-0.42c-0.7,-0.28 -1.3,-0.67 -1.81,-1.18c-0.5,-0.51 -0.89,-1.12 -1.17,-1.83c-0.28,-0.71 -0.42,-1.49 -0.42,-2.34c0,-0.85 0.14,-1.68 0.42,-2.38c0.28,-0.7 0.67,-1.31 1.17,-1.82z" id="Path 1"/><path d="M-492.565,-38.85409h3.12l3.67,5.37h6.12l-4.37,-6.37c1.22,-0.58 2.18,-1.39 2.87,-2.43c0.73,-1.11 1.1,-2.42 1.1,-3.94c0,-1.52 -0.37,-2.87 -1.1,-4c-0.73,-1.13 -1.77,-1.99 -3.1,-2.58c-1.34,-0.6 -2.93,-0.9 -4.78,-0.9h-9.24v20.22h5.72v-5.37zM-486.715,-48.41409c0.59,0.52 0.88,1.25 0.88,2.19c0,0.94 -0.29,1.65 -0.88,2.17c-0.59,0.52 -1.48,0.78 -2.67,0.78h-3.18v-5.92h3.18c1.19,0 2.08,0.26 2.67,0.78z" id="CompoundPath 1"/><path d="M-460.105,-37.90409h-10.57v-3.69h8.99v-4.28h-8.99v-3.41h10.2v-4.42h-15.86v20.22h16.23z" id="Path 1"/><path d="M-440.115,-37.90409h-10.57v-3.69h8.98v-4.28h-8.98v-3.41h10.2v-4.42h-15.86v20.22h16.23z" id="Path 1"/><path d="M-430.755,-44.25409l8.93,10.77h4.7v-20.22h-5.6v10.78l-8.92,-10.78h-4.71v20.22h5.6z" id="Path 1"/><path d="M-480.295,-19.88409h-7.8v-7.6h-5.72v20.22h5.72v-7.88h7.8v7.88h5.72v-20.22h-5.72z" id="Path 1"/><path d="M-451.735,-24.89409c-1,-0.95 -2.18,-1.69 -3.54,-2.21c-1.36,-0.52 -2.85,-0.78 -4.49,-0.78c-1.64,0 -3.11,0.26 -4.48,0.78c-1.37,0.52 -2.56,1.26 -3.57,2.21c-1.01,0.95 -1.8,2.06 -2.35,3.34c-0.56,1.27 -0.84,2.67 -0.84,4.19c0,1.52 0.28,2.92 0.84,4.19c0.56,1.27 1.34,2.38 2.35,3.34c1.01,0.95 2.2,1.69 3.57,2.21c1.37,0.52 2.86,0.78 4.48,0.78c1.62,0 3.13,-0.26 4.49,-0.78c1.36,-0.52 2.54,-1.25 3.54,-2.2c1,-0.94 1.79,-2.06 2.35,-3.34c0.57,-1.28 0.85,-2.68 0.85,-4.2c0,-1.52 -0.28,-2.92 -0.85,-4.19c-0.57,-1.27 -1.35,-2.38 -2.35,-3.34zM-454.725,-15.00409c-0.28,0.71 -0.66,1.32 -1.16,1.83c-0.49,0.51 -1.07,0.9 -1.73,1.17c-0.66,0.27 -1.38,0.4 -2.15,0.4c-0.77,0 -1.49,-0.13 -2.15,-0.4c-0.66,-0.27 -1.24,-0.66 -1.73,-1.17c-0.49,-0.51 -0.88,-1.12 -1.16,-1.83c-0.28,-0.71 -0.42,-1.5 -0.42,-2.37c0,-0.87 0.14,-1.68 0.42,-2.38c0.28,-0.7 0.66,-1.31 1.16,-1.82c0.49,-0.51 1.07,-0.9 1.73,-1.17c0.66,-0.27 1.38,-0.4 2.15,-0.4c0.77,0 1.49,0.13 2.15,0.4c0.66,0.27 1.24,0.66 1.73,1.17c0.49,0.51 0.88,1.12 1.16,1.82c0.28,0.7 0.42,1.5 0.42,2.38c0,0.88 -0.14,1.66 -0.42,2.37z" id="CompoundPath 1"/><path d="M-431.745,-16.44409c0,1.73 -0.34,2.98 -1.01,3.73c-0.67,0.75 -1.61,1.13 -2.8,1.13c-1.19,0 -2.13,-0.38 -2.82,-1.13c-0.68,-0.75 -1.03,-1.99 -1.03,-3.73v-11.03h-5.72v11.21c0,3 0.84,5.32 2.51,6.96c1.67,1.64 4,2.46 6.99,2.46c2.99,0 5.31,-0.82 6.99,-2.46c1.68,-1.64 2.51,-3.96 2.51,-6.96v-11.21h-5.63v11.03z" id="Path 1"/><path d="M-407.855,-17.73409c-0.67,-0.43 -1.42,-0.78 -2.24,-1.04c-0.82,-0.26 -1.64,-0.48 -2.46,-0.65c-0.82,-0.17 -1.57,-0.34 -2.25,-0.51c-0.68,-0.16 -1.23,-0.38 -1.65,-0.64c-0.41,-0.26 -0.62,-0.61 -0.62,-1.05c0,-0.35 0.11,-0.65 0.32,-0.92c0.21,-0.27 0.56,-0.49 1.04,-0.65c0.48,-0.16 1.12,-0.25 1.91,-0.25c0.89,0 1.8,0.13 2.74,0.39c0.94,0.26 1.9,0.65 2.86,1.17l1.76,-4.25c-1,-0.58 -2.14,-1.02 -3.42,-1.31c-1.28,-0.3 -2.59,-0.45 -3.91,-0.45c-1.98,0 -3.64,0.3 -4.97,0.9c-1.33,0.6 -2.33,1.39 -2.99,2.37c-0.66,0.98 -1,2.08 -1,3.29c0,1.08 0.21,1.97 0.64,2.67c0.42,0.7 0.97,1.27 1.65,1.7c0.67,0.43 1.42,0.79 2.24,1.05c0.82,0.27 1.64,0.49 2.46,0.66c0.82,0.17 1.56,0.35 2.24,0.52c0.67,0.17 1.22,0.4 1.65,0.66c0.42,0.27 0.64,0.64 0.64,1.1c0,0.33 -0.11,0.61 -0.33,0.85c-0.22,0.24 -0.57,0.43 -1.05,0.58c-0.48,0.14 -1.12,0.22 -1.91,0.22c-1.17,0 -2.35,-0.19 -3.54,-0.56c-1.18,-0.38 -2.23,-0.85 -3.13,-1.43l-1.88,4.22c0.96,0.65 2.21,1.19 3.74,1.6c1.53,0.41 3.12,0.62 4.78,0.62c2,0 3.66,-0.3 4.98,-0.9c1.32,-0.6 2.31,-1.39 2.98,-2.38c0.66,-0.99 1,-2.07 1,-3.25c0,-1.06 -0.21,-1.94 -0.62,-2.64c-0.41,-0.7 -0.96,-1.27 -1.63,-1.7z" id="Path 1"/><path d="M-396.675,-11.68409v-3.69h8.99v-4.28h-8.99v-3.41h10.2v-4.42h-15.86v20.22h16.24v-4.42z" id="Path 1"/></g><path d="M-311.905,-106.60409c-7.54,0 -13.87,5.13 -15.71,12.09l-45.9,-1.66v23.29h12.59v-10.98h34.13c2.51,5.73 8.23,9.74 14.89,9.74c8.97,0 16.24,-7.27 16.24,-16.24c0,-8.97 -7.27,-16.24 -16.24,-16.24zM-308.885,-84.52409c-3.22,0 -5.84,-2.61 -5.84,-5.84c0,-3.23 2.61,-5.84 5.84,-5.84c3.23,0 5.84,2.61 5.84,5.84c0,3.23 -2.61,5.84 -5.84,5.84z" id="CompoundPath 1" fill="#1d1d1b"/><path d="M-343.005,-50.71409c0.17,2.2 0.35,4.4 0.52,6.59h18.48l-2.05,-32.57c-9.58,-0.6 -19.16,-1.21 -28.74,-1.81v15.21c-8.25,-1.12 -16.5,-2.23 -24.76,-3.35v-35.77c16.87,-1.04 33.75,-2.08 50.62,-3.11c-1.56,-3.41 -4.56,-8.75 -10.04,-13.56c-12.4,-10.88 -27.41,-10.18 -30.29,-9.99c-18.8,1.25 -29.48,14.64 -30.93,16.52c-1.32,1.71 -12.06,16.14 -7.89,34.87c3.96,17.83 19.61,31.02 36.78,33.23c13.76,1.77 24.48,-3.97 28.31,-6.27z" id="Path 1" fill="#76b837"/></g><g id="Group 1" fill="#1d1d1b"><path d="M-514.775,-47.79409c0.5,-0.51 1.11,-0.9 1.82,-1.17c0.71,-0.27 1.5,-0.4 2.37,-0.4c0.98,0 1.87,0.19 2.67,0.56c0.8,0.38 1.55,0.94 2.24,1.69l3.64,-3.29c-0.98,-1.19 -2.22,-2.11 -3.73,-2.74c-1.5,-0.64 -3.21,-0.95 -5.11,-0.95c-1.64,0 -3.14,0.26 -4.52,0.77c-1.38,0.51 -2.57,1.24 -3.57,2.18c-1,0.94 -1.78,2.06 -2.34,3.34c-0.56,1.28 -0.84,2.69 -0.84,4.23c0,1.54 0.28,2.95 0.84,4.23c0.56,1.28 1.33,2.39 2.33,3.34c0.99,0.94 2.17,1.67 3.54,2.18c1.37,0.51 2.85,0.77 4.45,0.77c1.46,0 2.96,-0.22 4.48,-0.66c1.52,-0.44 2.86,-1.08 4.01,-1.91v-8.38h-5.05v5.55c-0.2,0.09 -0.41,0.18 -0.61,0.25c-0.81,0.28 -1.64,0.42 -2.48,0.42c-0.84,0 -1.62,-0.14 -2.33,-0.42c-0.7,-0.28 -1.3,-0.67 -1.81,-1.18c-0.5,-0.51 -0.89,-1.12 -1.17,-1.83c-0.28,-0.71 -0.42,-1.49 -0.42,-2.34c0,-0.85 0.14,-1.68 0.42,-2.38c0.28,-0.7 0.67,-1.31 1.17,-1.82z" id="Path 1"/><path d="M-492.565,-38.85409h3.12l3.67,5.37h6.12l-4.37,-6.37c1.22,-0.58 2.18,-1.39 2.87,-2.43c0.73,-1.11 1.1,-2.42 1.1,-3.94c0,-1.52 -0.37,-2.87 -1.1,-4c-0.73,-1.13 -1.77,-1.99 -3.1,-2.58c-1.34,-0.6 -2.93,-0.9 -4.78,-0.9h-9.24v20.22h5.72v-5.37zM-486.715,-48.41409c0.59,0.52 0.88,1.25 0.88,2.19c0,0.94 -0.29,1.65 -0.88,2.17c-0.59,0.52 -1.48,0.78 -2.67,0.78h-3.18v-5.92h3.18c1.19,0 2.08,0.26 2.67,0.78z" id="CompoundPath 1"/><path d="M-460.105,-37.90409h-10.57v-3.69h8.99v-4.28h-8.99v-3.41h10.2v-4.42h-15.86v20.22h16.23z" id="Path 1"/><path d="M-440.115,-37.90409h-10.57v-3.69h8.98v-4.28h-8.98v-3.41h10.2v-4.42h-15.86v20.22h16.23z" id="Path 1"/><path d="M-430.755,-44.25409l8.93,10.77h4.7v-20.22h-5.6v10.78l-8.92,-10.78h-4.71v20.22h5.6z" id="Path 1"/><path d="M-480.295,-19.88409h-7.8v-7.6h-5.72v20.22h5.72v-7.88h7.8v7.88h5.72v-20.22h-5.72z" id="Path 1"/><path d="M-451.735,-24.89409c-1,-0.95 -2.18,-1.69 -3.54,-2.21c-1.36,-0.52 -2.85,-0.78 -4.49,-0.78c-1.64,0 -3.11,0.26 -4.48,0.78c-1.37,0.52 -2.56,1.26 -3.57,2.21c-1.01,0.95 -1.8,2.06 -2.35,3.34c-0.56,1.27 -0.84,2.67 -0.84,4.19c0,1.52 0.28,2.92 0.84,4.19c0.56,1.27 1.34,2.38 2.35,3.34c1.01,0.95 2.2,1.69 3.57,2.21c1.37,0.52 2.86,0.78 4.48,0.78c1.62,0 3.13,-0.26 4.49,-0.78c1.36,-0.52 2.54,-1.25 3.54,-2.2c1,-0.94 1.79,-2.06 2.35,-3.34c0.57,-1.28 0.85,-2.68 0.85,-4.2c0,-1.52 -0.28,-2.92 -0.85,-4.19c-0.57,-1.27 -1.35,-2.38 -2.35,-3.34zM-454.725,-15.00409c-0.28,0.71 -0.66,1.32 -1.16,1.83c-0.49,0.51 -1.07,0.9 -1.73,1.17c-0.66,0.27 -1.38,0.4 -2.15,0.4c-0.77,0 -1.49,-0.13 -2.15,-0.4c-0.66,-0.27 -1.24,-0.66 -1.73,-1.17c-0.49,-0.51 -0.88,-1.12 -1.16,-1.83c-0.28,-0.71 -0.42,-1.5 -0.42,-2.37c0,-0.87 0.14,-1.68 0.42,-2.38c0.28,-0.7 0.66,-1.31 1.16,-1.82c0.49,-0.51 1.07,-0.9 1.73,-1.17c0.66,-0.27 1.38,-0.4 2.15,-0.4c0.77,0 1.49,0.13 2.15,0.4c0.66,0.27 1.24,0.66 1.73,1.17c0.49,0.51 0.88,1.12 1.16,1.82c0.28,0.7 0.42,1.5 0.42,2.38c0,0.88 -0.14,1.66 -0.42,2.37z" id="CompoundPath 1"/><path d="M-431.745,-16.44409c0,1.73 -0.34,2.98 -1.01,3.73c-0.67,0.75 -1.61,1.13 -2.8,1.13c-1.19,0 -2.13,-0.38 -2.82,-1.13c-0.68,-0.75 -1.03,-1.99 -1.03,-3.73v-11.03h-5.72v11.21c0,3 0.84,5.32 2.51,6.96c1.67,1.64 4,2.46 6.99,2.46c2.99,0 5.31,-0.82 6.99,-2.46c1.68,-1.64 2.51,-3.96 2.51,-6.96v-11.21h-5.63v11.03z" id="Path 1"/><path d="M-407.855,-17.73409c-0.67,-0.43 -1.42,-0.78 -2.24,-1.04c-0.82,-0.26 -1.64,-0.48 -2.46,-0.65c-0.82,-0.17 -1.57,-0.34 -2.25,-0.51c-0.68,-0.16 -1.23,-0.38 -1.65,-0.64c-0.41,-0.26 -0.62,-0.61 -0.62,-1.05c0,-0.35 0.11,-0.65 0.32,-0.92c0.21,-0.27 0.56,-0.49 1.04,-0.65c0.48,-0.16 1.12,-0.25 1.91,-0.25c0.89,0 1.8,0.13 2.74,0.39c0.94,0.26 1.9,0.65 2.86,1.17l1.76,-4.25c-1,-0.58 -2.14,-1.02 -3.42,-1.31c-1.28,-0.3 -2.59,-0.45 -3.91,-0.45c-1.98,0 -3.64,0.3 -4.97,0.9c-1.33,0.6 -2.33,1.39 -2.99,2.37c-0.66,0.98 -1,2.08 -1,3.29c0,1.08 0.21,1.97 0.64,2.67c0.42,0.7 0.97,1.27 1.65,1.7c0.67,0.43 1.42,0.79 2.24,1.05c0.82,0.27 1.64,0.49 2.46,0.66c0.82,0.17 1.56,0.35 2.24,0.52c0.67,0.17 1.22,0.4 1.65,0.66c0.42,0.27 0.64,0.64 0.64,1.1c0,0.33 -0.11,0.61 -0.33,0.85c-0.22,0.24 -0.57,0.43 -1.05,0.58c-0.48,0.14 -1.12,0.22 -1.91,0.22c-1.17,0 -2.35,-0.19 -3.54,-0.56c-1.18,-0.38 -2.23,-0.85 -3.13,-1.43l-1.88,4.22c0.96,0.65 2.21,1.19 3.74,1.6c1.53,0.41 3.12,0.62 4.78,0.62c2,0 3.66,-0.3 4.98,-0.9c1.32,-0.6 2.31,-1.39 2.98,-2.38c0.66,-0.99 1,-2.07 1,-3.25c0,-1.06 -0.21,-1.94 -0.62,-2.64c-0.41,-0.7 -0.96,-1.27 -1.63,-1.7z" id="Path 1"/><path d="M-396.675,-11.68409v-3.69h8.99v-4.28h-8.99v-3.41h10.2v-4.42h-15.86v20.22h16.24v-4.42z" id="Path 1"/></g><path d="M-514.775,-47.79409c0.5,-0.51 1.11,-0.9 1.82,-1.17c0.71,-0.27 1.5,-0.4 2.37,-0.4c0.98,0 1.87,0.19 2.67,0.56c0.8,0.38 1.55,0.94 2.24,1.69l3.64,-3.29c-0.98,-1.19 -2.22,-2.11 -3.73,-2.74c-1.5,-0.64 -3.21,-0.95 -5.11,-0.95c-1.64,0 -3.14,0.26 -4.52,0.77c-1.38,0.51 -2.57,1.24 -3.57,2.18c-1,0.94 -1.78,2.06 -2.34,3.34c-0.56,1.28 -0.84,2.69 -0.84,4.23c0,1.54 0.28,2.95 0.84,4.23c0.56,1.28 1.33,2.39 2.33,3.34c0.99,0.94 2.17,1.67 3.54,2.18c1.37,0.51 2.85,0.77 4.45,0.77c1.46,0 2.96,-0.22 4.48,-0.66c1.52,-0.44 2.86,-1.08 4.01,-1.91v-8.38h-5.05v5.55c-0.2,0.09 -0.41,0.18 -0.61,0.25c-0.81,0.28 -1.64,0.42 -2.48,0.42c-0.84,0 -1.62,-0.14 -2.33,-0.42c-0.7,-0.28 -1.3,-0.67 -1.81,-1.18c-0.5,-0.51 -0.89,-1.12 -1.17,-1.83c-0.28,-0.71 -0.42,-1.49 -0.42,-2.34c0,-0.85 0.14,-1.68 0.42,-2.38c0.28,-0.7 0.67,-1.31 1.17,-1.82z" id="Path 1" fill="#1d1d1b"/><path d="M-492.565,-38.85409h3.12l3.67,5.37h6.12l-4.37,-6.37c1.22,-0.58 2.18,-1.39 2.87,-2.43c0.73,-1.11 1.1,-2.42 1.1,-3.94c0,-1.52 -0.37,-2.87 -1.1,-4c-0.73,-1.13 -1.77,-1.99 -3.1,-2.58c-1.34,-0.6 -2.93,-0.9 -4.78,-0.9h-9.24v20.22h5.72v-5.37zM-486.715,-48.41409c0.59,0.52 0.88,1.25 0.88,2.19c0,0.94 -0.29,1.65 -0.88,2.17c-0.59,0.52 -1.48,0.78 -2.67,0.78h-3.18v-5.92h3.18c1.19,0 2.08,0.26 2.67,0.78z" id="CompoundPath 1" fill="#1d1d1b"/><path d="M-460.105,-37.90409h-10.57v-3.69h8.99v-4.28h-8.99v-3.41h10.2v-4.42h-15.86v20.22h16.23z" id="Path 1" fill="#1d1d1b"/><path d="M-440.115,-37.90409h-10.57v-3.69h8.98v-4.28h-8.98v-3.41h10.2v-4.42h-15.86v20.22h16.23z" id="Path 1" fill="#1d1d1b"/><path d="M-430.755,-44.25409l8.93,10.77h4.7v-20.22h-5.6v10.78l-8.92,-10.78h-4.71v20.22h5.6z" id="Path 1" fill="#1d1d1b"/><path d="M-480.295,-19.88409h-7.8v-7.6h-5.72v20.22h5.72v-7.88h7.8v7.88h5.72v-20.22h-5.72z" id="Path 1" fill="#1d1d1b"/><path d="M-451.735,-24.89409c-1,-0.95 -2.18,-1.69 -3.54,-2.21c-1.36,-0.52 -2.85,-0.78 -4.49,-0.78c-1.64,0 -3.11,0.26 -4.48,0.78c-1.37,0.52 -2.56,1.26 -3.57,2.21c-1.01,0.95 -1.8,2.06 -2.35,3.34c-0.56,1.27 -0.84,2.67 -0.84,4.19c0,1.52 0.28,2.92 0.84,4.19c0.56,1.27 1.34,2.38 2.35,3.34c1.01,0.95 2.2,1.69 3.57,2.21c1.37,0.52 2.86,0.78 4.48,0.78c1.62,0 3.13,-0.26 4.49,-0.78c1.36,-0.52 2.54,-1.25 3.54,-2.2c1,-0.94 1.79,-2.06 2.35,-3.34c0.57,-1.28 0.85,-2.68 0.85,-4.2c0,-1.52 -0.28,-2.92 -0.85,-4.19c-0.57,-1.27 -1.35,-2.38 -2.35,-3.34zM-454.725,-15.00409c-0.28,0.71 -0.66,1.32 -1.16,1.83c-0.49,0.51 -1.07,0.9 -1.73,1.17c-0.66,0.27 -1.38,0.4 -2.15,0.4c-0.77,0 -1.49,-0.13 -2.15,-0.4c-0.66,-0.27 -1.24,-0.66 -1.73,-1.17c-0.49,-0.51 -0.88,-1.12 -1.16,-1.83c-0.28,-0.71 -0.42,-1.5 -0.42,-2.37c0,-0.87 0.14,-1.68 0.42,-2.38c0.28,-0.7 0.66,-1.31 1.16,-1.82c0.49,-0.51 1.07,-0.9 1.73,-1.17c0.66,-0.27 1.38,-0.4 2.15,-0.4c0.77,0 1.49,0.13 2.15,0.4c0.66,0.27 1.24,0.66 1.73,1.17c0.49,0.51 0.88,1.12 1.16,1.82c0.28,0.7 0.42,1.5 0.42,2.38c0,0.88 -0.14,1.66 -0.42,2.37z" id="CompoundPath 1" fill="#1d1d1b"/><path d="M-431.745,-16.44409c0,1.73 -0.34,2.98 -1.01,3.73c-0.67,0.75 -1.61,1.13 -2.8,1.13c-1.19,0 -2.13,-0.38 -2.82,-1.13c-0.68,-0.75 -1.03,-1.99 -1.03,-3.73v-11.03h-5.72v11.21c0,3 0.84,5.32 2.51,6.96c1.67,1.64 4,2.46 6.99,2.46c2.99,0 5.31,-0.82 6.99,-2.46c1.68,-1.64 2.51,-3.96 2.51,-6.96v-11.21h-5.63v11.03z" id="Path 1" fill="#1d1d1b"/><path d="M-407.855,-17.73409c-0.67,-0.43 -1.42,-0.78 -2.24,-1.04c-0.82,-0.26 -1.64,-0.48 -2.46,-0.65c-0.82,-0.17 -1.57,-0.34 -2.25,-0.51c-0.68,-0.16 -1.23,-0.38 -1.65,-0.64c-0.41,-0.26 -0.62,-0.61 -0.62,-1.05c0,-0.35 0.11,-0.65 0.32,-0.92c0.21,-0.27 0.56,-0.49 1.04,-0.65c0.48,-0.16 1.12,-0.25 1.91,-0.25c0.89,0 1.8,0.13 2.74,0.39c0.94,0.26 1.9,0.65 2.86,1.17l1.76,-4.25c-1,-0.58 -2.14,-1.02 -3.42,-1.31c-1.28,-0.3 -2.59,-0.45 -3.91,-0.45c-1.98,0 -3.64,0.3 -4.97,0.9c-1.33,0.6 -2.33,1.39 -2.99,2.37c-0.66,0.98 -1,2.08 -1,3.29c0,1.08 0.21,1.97 0.64,2.67c0.42,0.7 0.97,1.27 1.65,1.7c0.67,0.43 1.42,0.79 2.24,1.05c0.82,0.27 1.64,0.49 2.46,0.66c0.82,0.17 1.56,0.35 2.24,0.52c0.67,0.17 1.22,0.4 1.65,0.66c0.42,0.27 0.64,0.64 0.64,1.1c0,0.33 -0.11,0.61 -0.33,0.85c-0.22,0.24 -0.57,0.43 -1.05,0.58c-0.48,0.14 -1.12,0.22 -1.91,0.22c-1.17,0 -2.35,-0.19 -3.54,-0.56c-1.18,-0.38 -2.23,-0.85 -3.13,-1.43l-1.88,4.22c0.96,0.65 2.21,1.19 3.74,1.6c1.53,0.41 3.12,0.62 4.78,0.62c2,0 3.66,-0.3 4.98,-0.9c1.32,-0.6 2.31,-1.39 2.98,-2.38c0.66,-0.99 1,-2.07 1,-3.25c0,-1.06 -0.21,-1.94 -0.62,-2.64c-0.41,-0.7 -0.96,-1.27 -1.63,-1.7z" id="Path 1" fill="#1d1d1b"/><path d="M-396.675,-11.68409v-3.69h8.99v-4.28h-8.99v-3.41h10.2v-4.42h-15.86v20.22h16.24v-4.42z" id="Path 1" fill="#1d1d1b"/><path d="M-311.905,-106.60409c-7.54,0 -13.87,5.13 -15.71,12.09l-45.9,-1.66v23.29h12.59v-10.98h34.13c2.51,5.73 8.23,9.74 14.89,9.74c8.97,0 16.24,-7.27 16.24,-16.24c0,-8.97 -7.27,-16.24 -16.24,-16.24zM-308.885,-84.52409c-3.22,0 -5.84,-2.61 -5.84,-5.84c0,-3.23 2.61,-5.84 5.84,-5.84c3.23,0 5.84,2.61 5.84,5.84c0,3.23 -2.61,5.84 -5.84,5.84z" id="CompoundPath 1" fill="#1d1d1b"/><path d="M-343.005,-50.71409c0.17,2.2 0.35,4.4 0.52,6.59h18.48l-2.05,-32.57c-9.58,-0.6 -19.16,-1.21 -28.74,-1.81v15.21c-8.25,-1.12 -16.5,-2.23 -24.76,-3.35v-35.77c16.87,-1.04 33.75,-2.08 50.62,-3.11c-1.56,-3.41 -4.56,-8.75 -10.04,-13.56c-12.4,-10.88 -27.41,-10.18 -30.29,-9.99c-18.8,1.25 -29.48,14.64 -30.93,16.52c-1.32,1.71 -12.06,16.14 -7.89,34.87c3.96,17.83 19.61,31.02 36.78,33.23c13.76,1.77 24.48,-3.97 28.31,-6.27z" id="Path 1" fill="#76b837"/></g></svg>