<?xml version="1.0" encoding="utf-8"?>
<svg id="proporcje" xmlns="http://www.w3.org/2000/svg" viewBox="0 0 198.43 198.43">
  <defs>
    <style>
      .cls-1 {
        fill: #76b837;
      }

      .cls-1, .cls-2, .cls-3 {
        stroke-width: 0px;
      }

      .cls-2 {
        fill: #fff;
      }

      .cls-3 {
        fill: #1d1d1b;
      }
    </style>
  </defs>
  <path class="cls-3" d="M 168.71 59.441 C 155.722 59.441 144.818 67.831 141.648 79.212 L 62.58 76.498 L 62.58 114.587 L 84.267 114.587 L 84.267 96.63 L 143.061 96.63 C 147.384 106.001 157.238 112.559 168.71 112.559 C 184.161 112.559 196.685 100.67 196.685 85.999 C 196.685 71.33 184.161 59.441 168.71 59.441 Z M 173.912 95.551 C 168.365 95.551 163.852 91.283 163.852 85.999 C 163.852 80.717 168.348 76.449 173.912 76.449 C 179.477 76.449 183.973 80.717 183.973 85.999 C 183.973 91.283 179.477 95.551 173.912 95.551 Z" style=""/>
  <path class="cls-1" d="M 115.137 150.844 C 115.43 154.442 115.74 158.04 116.032 161.622 L 147.867 161.622 L 144.335 108.356 C 127.832 107.375 111.33 106.378 94.828 105.396 L 94.828 130.271 C 80.616 128.439 66.404 126.623 52.176 124.792 L 52.176 66.293 C 81.236 64.592 110.314 62.892 139.373 61.207 C 136.687 55.63 131.518 46.897 122.079 39.031 C 100.718 21.237 74.863 22.382 69.902 22.692 C 37.516 24.737 19.119 46.635 16.621 49.709 C 14.347 52.507 -4.153 76.106 3.03 106.737 C 9.851 135.896 36.81 157.468 66.387 161.082 C 90.09 163.977 108.557 154.59 115.154 150.828 L 115.137 150.844 Z" style=""/>
</svg>